<svg xmlns="http://www.w3.org/2000/svg" viewBox="0 0 174.95 183.97"><defs><style>.cls-1{fill:none;stroke:#000;stroke-miterlimit:10;stroke-width:0.5px;}</style></defs><title>close_button2</title><g id="Layer_2" data-name="Layer 2"><g id="Layer_1-2" data-name="Layer 1"><path class="cls-1" d="M87.56,63.83,39.1,15"/><path d="M136.59,21.61c-6.46,6.77-12.83,14.37-19.8,22.84S102.2,62.07,94,71.21l-5.54,6.14L80,71.21,28.05,33.38,7.15,18.16,30.23,8.41A109.74,109.74,0,0,1,113.43,8a101.31,101.31,0,0,1,12,5.88q2.86,1.67,5.6,3.5c.91.62,1.8,1.26,2.69,1.89a18.47,18.47,0,0,1,1.55,1.2Zm-1,.09c-.54-.18-1.06-.3-1.5-.4a9.39,9.39,0,0,1-1.26-.34c-1-.34-2-.7-3-1-2-.64-4.07-1.21-6.12-1.71a92.64,92.64,0,0,0-12.35-2.1A95.56,95.56,0,0,0,87,16.79,91.39,91.39,0,0,0,64.48,23.3,78.7,78.7,0,0,0,45.54,34.91l2.18-25L94,54.57H80C88.15,50,96.87,45.4,106.29,40.1A340,340,0,0,0,135.6,21.7Z"/><path class="cls-1" d="M65.48,92.68l-46,51.21A86,86,0,0,1,2,96"/><path d="M19.32,53.39c7.38,5.24,15.53,10.36,24.49,15.93S62.45,81,72.23,87.61l8.18,5.56L73,102.82,35.36,152,22,169.38,11.69,151.05a90.67,90.67,0,0,1-9.76-25.74A88.11,88.11,0,0,1,.37,99a84.42,84.42,0,0,1,6-24.59A80.58,80.58,0,0,1,12,63.4c.53-.86,1.08-1.71,1.62-2.56l1.71-2.49,1.8-2.4A28,28,0,0,1,19.32,53.39Zm.14,1c-.34,1-.44,1.79-.69,2.5l-.93,2.76L17,62.42c-.24.93-.49,1.85-.71,2.78a73.17,73.17,0,0,0-.15,33,68.19,68.19,0,0,0,7.6,19.28,63.65,63.65,0,0,0,12.38,15.2l-23.67-.94,44.3-43.28.78,15.21c-5.38-7.26-10.86-15.08-17.08-23.44S27.24,63.05,19.46,54.38Z"/><path class="cls-1" d="M98.07,116.89l53.77,42.82a84.81,84.81,0,0,1-46.39,20.68"/><path d="M54.64,167.38c4.85-8.14,9.53-17,14.58-26.72s10.55-20.13,16.59-30.72l5.12-9,10.29,7.18,52.62,36.74,17.18,12-16.6,11.34A91.18,91.18,0,0,1,129,180.33,87.05,87.05,0,0,1,102.26,184a83.78,83.78,0,0,1-25.5-4.56,80.83,80.83,0,0,1-11.52-5l-2.7-1.52-2.63-1.61-2.55-1.71A30.59,30.59,0,0,1,54.64,167.38Zm1-.21c1,.3,1.85.38,2.59.61l2.86.82,2.87.72,2.88.59a73,73,0,0,0,11.52,1.22,71.15,71.15,0,0,0,22.07-2.88,67.41,67.41,0,0,0,19.1-9.07,64.46,64.46,0,0,0,14.54-13.81l.58,23.33-47-43.65,15.4-1.8c-7,6.3-14.63,12.75-22.68,19.95S63.86,158.41,55.62,167.17Z"/><path class="cls-1" d="M122.86,84.69l31.67-39.8a88,88,0,0,1,17.92,45.45"/><path d="M170.09,118.75c-.78,2.45-1.47,4.91-2.08,7.44l-.26,1.1-1.07-.76a109.19,109.19,0,0,0-13.73-8.2c-4.81-2.45-9.79-4.71-14.64-7.12a134.18,134.18,0,0,1-14-7.88c-2.22-1.45-4.37-3-6.5-4.53s-4.26-3.12-6.35-4.73L103,87.59l6.83-9.52a261.25,261.25,0,0,1,18-22.25c3.17-3.58,6.42-7.09,9.65-10.62s6.45-7.06,9.76-10.53l8.65-9,5.91,9.14a77.07,77.07,0,0,1,9.41,20.57,91.57,91.57,0,0,1,3.56,21.73A127.12,127.12,0,0,1,174,98.33,139.73,139.73,0,0,1,170.09,118.75Zm-1-.27a65.2,65.2,0,0,0,2.48-20.25,67.23,67.23,0,0,0-3.86-19.81A83.36,83.36,0,0,0,159,60.85a109.11,109.11,0,0,0-11.76-14.74l14.56.09c-2.63,4-5.34,7.94-8.06,11.88S148.3,66,145.54,69.86a263.33,263.33,0,0,1-17.63,22.56l-1.6-16c1.94,1.78,3.84,3.6,5.74,5.44s3.77,3.68,5.58,5.63A134.1,134.1,0,0,1,147.8,99.92c3.2,4.37,6.28,8.89,9.53,13.21a108.76,108.76,0,0,0,10.44,12.11l-1.33.35Q167.91,122.1,169.12,118.48Z"/></g></g></svg>